# xmcd
#
# Track frame offsets:
# 150
# 23673
# 29608
# 49047
# 67484
# 83417
# 107116
# 112851
# 132256
# 141601
# 163996
# 179538
# 199215
# 227748
# 250903
# 276665
# 294179
#
# Disc length: 4184 seconds
#
#
# Revision: 0
# Processed by: cddbd v1.5.1PL2 Copyright (c) Steve Scherf et al.
# Submitted via: FreeRIP 2.91 
#
DISCID=05105611
DTITLE=Joe SATRIANI - Amazing Guitar (The Very Best)
DYEAR=1900
DGENRE=Progressive Rock
TTITLE0=Crushing Day
TTITLE1=Tears in The Rain
TTITLE2=The Crush Of Love
TTITLE3=Crazy
TTITLE4=Driving At Night
TTITLE5=Big Bad Moon
TTITLE6=Midnight
TTITLE7=Thinking Of You
TTITLE8=Day At The Beach
TTITLE9=Summer Song
TTITLE10=Home
TTITLE11=Surfing With The Alien
TTITLE12=The Forgotten Pt.'s
TTITLE13=Speed Of Night
TTITLE14=Cryin'
TTITLE15=Hordes Of Locuts
TTITLE16=Moroccan Sunset
EXTD=
EXTT0=
EXTT1=
EXTT2=
EXTT3=
EXTT4=
EXTT5=
EXTT6=
EXTT7=
EXTT8=
EXTT9=
EXTT10=
EXTT11=
EXTT12=
EXTT13=
EXTT14=
EXTT15=
EXTT16=
PLAYORDER=
